# xmcd
#
# Track frame offsets:
#	151
#	43878
#	53697
#	79886
#	91806
#	104566
#	118823
#	136231
#	147766
#	171379
#	186269
#	207773
#	223447
#
# Disc length: 3433 seconds
#
# Revision: 0
# Processed by: cddbd v1.5.1PL0 Copyright (c) Steve Scherf et al.
# Submitted via: EasyCDDAExtractor 7.7.1.2
#
DISCID=c70d670d
DTITLE=Diverse - Moonlight of Spring River
DYEAR=1900
DGENRE=
TTITLE0=Moonlight of Spring River
TTITLE1=Love Song in the Grassland
TTITLE2=The Ambush on all Side
TTITLE3=Kong Ding Love Song
TTITLE4=Ten Sigh
TTITLE5=A Bridge
TTITLE6=Love Bridge
TTITLE7=Song for the four Seasons
TTITLE8=A Reuret
TTITLE9=The Wandering singing Girl
TTITLE10=Herding Horses on the Grassland
TTITLE11=Autumn Moon on a Placid Lake
TTITLE12=Drunk Dream
EXTD=
EXTT0=
EXTT1=
EXTT2=
EXTT3=
EXTT4=
EXTT5=
EXTT6=
EXTT7=
EXTT8=
EXTT9=
EXTT10=
EXTT11=
EXTT12=
PLAYORDER=
